<svg width="256" height="256" viewBox="0 0 256 256" fill="none" xmlns="http://www.w3.org/2000/svg">
<rect width="256" height="256" rx="26" fill="#30AE52"/>
<path d="M193 53.5913C188.471 53.5913 185.186 53.5913 179.412 53.5913C174.882 53.5913 157.951 53.5913 151.157 53.5913C145.495 53.5913 137.764 53.5913 131.58 53.5913C117.279 53.5913 106.956 54.9086 99.3663 59.7966C93.182 63.7794 90.0899 70.0254 90.0899 78.5341C90.2831 85.2325 92.8921 90.9355 97.9169 95.6425C102.942 100.168 109.222 104.423 116.76 108.406C124.297 112.207 132.51 116.009 141.4 119.811C150.483 123.432 158.793 127.686 166.33 132.574C173.867 137.281 180.148 142.893 185.173 149.41C190.391 155.746 193 163.529 193 172.762C193 183.443 190.488 192.043 185.463 198.56C180.631 205.077 174.447 210.146 166.91 213.767C159.373 217.388 151.063 219.832 141.98 221.099C133.09 222.366 124.587 223 116.47 223C108.739 223 101.685 222.547 95.3079 221.642C88.9303 220.737 83.4225 219.741 78.7843 218.655C73.373 217.388 68.4449 215.94 64 214.31L69.7978 192.314C74.2427 194.125 78.9775 195.663 84.0022 196.931C88.4472 198.017 93.3753 199.013 98.7865 199.918C104.391 200.823 110.285 201.276 116.47 201.276C124.007 201.276 130.867 200.823 137.052 199.918C143.429 199.013 148.937 197.564 153.575 195.573C158.213 193.582 161.789 190.957 164.301 187.698C167.007 184.439 168.36 180.456 168.36 175.749C168.166 168.689 165.654 162.986 160.822 158.641C156.184 154.116 149.903 149.863 141.98 145.88C134.249 141.716 125.843 137.733 116.76 133.932C107.87 130.13 99.6562 125.785 92.1191 120.897C84.582 116.009 78.2045 110.216 72.9865 103.518C67.9618 96.8192 65.4494 88.4911 65.4494 78.5341C65.4494 72.7409 66.5124 67.0381 68.6382 61.4259C70.764 55.8138 74.3393 50.8353 79.364 46.4904C84.582 42.1455 91.2494 38.6153 99.3663 35.8997C107.676 33.1842 118.599 33 130.774 33C137.731 33 143.684 33 150.024 33C156.818 33 174.882 33.0001 179.412 33C185.073 33 188.471 33 193 33V53.5913Z" fill="white"/>
</svg>
