<svg width="475" height="108" viewBox="0 0 475 108" fill="none" xmlns="http://www.w3.org/2000/svg">
<path d="M76.704 29.616V77.328C76.704 81.584 77.3013 85.0933 78.496 87.856C79.7653 90.544 81.408 92.672 83.424 94.24C85.44 95.808 87.7173 96.8907 90.256 97.488C92.8693 98.0853 95.52 98.384 98.208 98.384C100.896 98.384 103.509 98.0853 106.048 97.488C108.587 96.8907 110.864 95.808 112.88 94.24C114.896 92.672 116.501 90.544 117.696 87.856C118.891 85.0933 119.488 81.584 119.488 77.328V29.616H128.896V79.68C128.896 83.5627 128.149 87.184 126.656 90.544C125.237 93.904 123.184 96.8533 120.496 99.392C117.808 101.856 114.56 103.797 110.752 105.216C106.944 106.635 102.725 107.344 98.096 107.344C88.1653 107.344 80.5493 104.955 75.248 100.176C69.9467 95.3227 67.296 88.4907 67.296 79.68V29.616H76.704ZM148.028 29.616H165.612C175.319 29.616 182.487 31.3333 187.116 34.768C191.82 38.2027 194.172 43.9893 194.172 52.128C194.172 56.608 193.313 60.3413 191.596 63.328C189.879 66.3147 187.713 68.7413 185.1 70.608C182.561 72.4 179.799 73.7067 176.812 74.528C173.825 75.2747 171.063 75.648 168.524 75.648H157.436V106H148.028V29.616ZM157.436 67.248H167.74C170.279 67.248 172.556 67.024 174.572 66.576C176.663 66.0533 178.455 65.232 179.948 64.112C181.441 62.9173 182.599 61.3493 183.42 59.408C184.241 57.392 184.652 54.8907 184.652 51.904C184.652 48.9173 184.204 46.528 183.308 44.736C182.487 42.8693 181.217 41.4507 179.5 40.48C177.857 39.5093 175.767 38.8747 173.228 38.576C170.689 38.2027 167.74 38.016 164.38 38.016H157.436V67.248ZM208.512 29.616H217.92V106H208.512V29.616ZM289.574 40.368C287.707 39.7707 285.729 39.248 283.638 38.8C281.547 38.2773 279.233 37.8667 276.694 37.568C274.23 37.1947 271.617 37.008 268.854 37.008C264.374 37.008 260.566 37.9787 257.43 39.92C254.294 41.8613 251.718 44.3627 249.702 47.424C247.761 50.4107 246.342 53.7707 245.446 57.504C244.55 61.2373 244.102 64.9333 244.102 68.592C244.102 73.2213 244.737 77.44 246.006 81.248C247.35 84.9813 249.142 88.192 251.382 90.88C253.697 93.4933 256.347 95.5093 259.334 96.928C262.395 98.3467 265.606 99.056 268.966 99.056C272.102 99.056 274.977 98.9067 277.59 98.608C280.203 98.2347 282.443 97.8613 284.31 97.488C286.475 97.04 288.417 96.5173 290.134 95.92L292.038 103.872C290.022 104.544 287.782 105.141 285.318 105.664C283.227 106.112 280.801 106.523 278.038 106.896C275.275 107.269 272.251 107.456 268.966 107.456C263.067 107.456 257.878 106.485 253.398 104.544C248.993 102.603 245.297 99.9147 242.31 96.48C239.398 92.9707 237.195 88.864 235.702 84.16C234.209 79.3813 233.462 74.1547 233.462 68.48C233.462 61.984 234.358 56.272 236.15 51.344C237.942 46.3413 240.406 42.16 243.542 38.8C246.678 35.44 250.411 32.9013 254.742 31.184C259.073 29.4667 263.814 28.608 268.966 28.608C272.102 28.608 275.014 28.7947 277.702 29.168C280.465 29.4667 282.966 29.8773 285.206 30.4C287.521 30.9227 289.649 31.4827 291.59 32.08L289.574 40.368ZM299.415 67.808C299.415 60.5653 300.535 54.4427 302.775 49.44C305.09 44.4373 308.002 40.4053 311.511 37.344C315.095 34.2827 319.052 32.08 323.383 30.736C327.788 29.3173 332.082 28.608 336.263 28.608C340.444 28.608 344.7 29.2053 349.031 30.4C353.436 31.52 357.394 33.5733 360.903 36.56C364.487 39.472 367.399 43.4667 369.639 48.544C371.954 53.6213 373.111 60.08 373.111 67.92C373.111 75.2373 371.954 81.3973 369.639 86.4C367.399 91.4027 364.487 95.472 360.903 98.608C357.394 101.744 353.436 104.021 349.031 105.44C344.7 106.784 340.444 107.456 336.263 107.456C332.082 107.456 327.788 106.784 323.383 105.44C319.052 104.096 315.095 101.893 311.511 98.832C308.002 95.7707 305.09 91.7013 302.775 86.624C300.535 81.5467 299.415 75.2747 299.415 67.808ZM362.471 68.368C362.471 58.288 360.119 50.6347 355.415 45.408C350.786 40.1813 344.551 37.568 336.711 37.568C332.754 37.568 329.132 38.2027 325.847 39.472C322.636 40.6667 319.836 42.496 317.447 44.96C315.132 47.424 313.303 50.5227 311.959 54.256C310.69 57.9147 310.055 62.2453 310.055 67.248C310.055 77.328 312.37 85.056 316.999 90.432C321.703 95.808 327.975 98.496 335.815 98.496C339.698 98.496 343.282 97.8987 346.567 96.704C349.852 95.4347 352.652 93.5307 354.967 90.992C357.356 88.4533 359.186 85.3173 360.455 81.584C361.799 77.8507 362.471 73.4453 362.471 68.368ZM390.781 29.616H402.765L420.013 75.088C420.984 77.7013 421.88 80.128 422.701 82.368C423.522 84.5333 424.232 86.4747 424.829 88.192C425.576 90.1333 426.21 91.9253 426.733 93.568H426.957C427.405 91.9253 427.965 90.1333 428.637 88.192C429.234 86.4747 429.906 84.5333 430.653 82.368C431.4 80.128 432.296 77.7013 433.341 75.088L450.925 29.616H462.909L466.829 106H457.309L455.405 64C455.256 60.3413 455.144 57.2427 455.069 54.704C454.994 52.1653 454.957 50.0747 454.957 48.432V43.728H454.733C454.285 44.848 453.725 46.3787 453.053 48.32C452.456 49.9627 451.672 52.0907 450.701 54.704C449.805 57.2427 448.685 60.3413 447.341 64L431.549 106H422.029L406.125 64C404.706 60.416 403.549 57.3547 402.653 54.816C401.757 52.2027 401.01 50.0747 400.413 48.432C399.741 46.4907 399.218 44.9227 398.845 43.728H398.621C398.696 44.9227 398.77 46.4907 398.845 48.432C398.92 51.568 398.808 56.7573 398.509 64L396.269 106H386.749L390.781 29.616Z" fill="white"/>
<path d="M465 17.7556C462.999 17.7556 461.547 17.7556 458.996 17.7556C456.994 17.7556 41.5131 18.424 38.511 18.424C36.0093 18.424 32.5935 18.424 29.8609 18.424C23.5418 18.424 18.9806 19.1121 15.627 21.6653C12.8944 23.7456 11.5281 27.0081 11.5281 31.4526C11.6135 34.9514 12.7663 37.9301 14.9865 40.3888C17.2067 42.7528 19.982 44.975 23.3124 47.0554C26.6427 49.0412 30.2719 51.027 34.2 53.0128C38.2135 54.904 41.8854 57.1262 45.2157 59.6794C48.5461 62.138 51.3214 65.0693 53.5416 68.4736C55.8472 71.7832 57 75.8489 57 80.6716C57 86.2507 55.8899 90.7424 53.6697 94.1467C51.5348 97.5509 48.8022 100.199 45.4719 102.09C42.1416 103.981 38.4697 105.258 34.4562 105.92C30.5281 106.582 26.7708 106.913 23.1843 106.913C19.7685 106.913 16.6517 106.676 13.8337 106.203C11.0157 105.731 8.58202 105.21 6.53258 104.643C4.14157 103.981 1.96405 103.225 0 102.374L2.5618 90.8843C4.52584 91.8299 6.61798 92.6337 8.8382 93.2956C10.8022 93.863 12.9798 94.3831 15.3708 94.8559C17.8472 95.3287 20.4517 95.5651 23.1843 95.5651C26.5146 95.5651 29.5461 95.3287 32.2787 94.8559C35.0966 94.3831 37.5303 93.6266 39.5798 92.5864C41.6292 91.5462 43.209 90.1751 44.3191 88.473C45.5146 86.7709 46.1124 84.6905 46.1124 82.2319C46.027 78.5439 44.9169 75.5653 42.782 73.2958C40.7326 70.9317 37.9573 68.71 34.4562 66.6296C31.0405 64.4547 27.3258 62.3744 23.3124 60.3886C19.3843 58.4028 15.7551 56.1333 12.4247 53.5801C9.09438 51.0269 6.27641 48.001 3.97079 44.5022C1.75056 41.0034 0.640449 36.6535 0.640449 31.4526C0.640449 28.4266 1.11011 25.4478 2.04944 22.5163C2.98876 19.5849 4.56854 16.9845 6.78876 14.715C9.09438 12.4455 12.0404 10.6015 15.627 9.18309C19.2989 7.76466 24.1249 7.66847 29.5047 7.66847C32.5789 7.66847 35.2091 7.66847 38.0107 7.66847C41.0128 7.66848 456.994 7.00003 458.996 7.00001C461.498 6.99999 462.999 6.99999 465 7V17.7556Z" fill="white"/>
</svg>
